<svg width="14" height="14" viewBox="0 0 14 14" fill="none" xmlns="http://www.w3.org/2000/svg">
<path d="M8.47757 0.400024C5.96957 0.400024 3.9309 2.46802 3.9309 4.99069C3.9309 6.06136 4.29757 7.02937 4.8989 7.82137L0.586902 12.1774C0.337569 12.4414 0.337569 12.852 0.586902 13.1014C0.718902 13.2334 0.880237 13.292 1.04157 13.292C1.21757 13.292 1.3789 13.2334 1.5109 13.1014L5.8229 8.73069C6.5709 9.27336 7.48024 9.58137 8.4629 9.58137C10.9709 9.58137 13.0096 7.51336 13.0096 4.99069C13.0242 2.45336 10.9856 0.400024 8.47757 0.400024ZM8.47757 8.4227C6.6149 8.4227 5.10423 6.88269 5.10423 4.99069C5.10423 3.09869 6.6149 1.5587 8.47757 1.5587C10.3402 1.5587 11.8509 3.09869 11.8509 4.99069C11.8509 6.88269 10.3402 8.4227 8.47757 8.4227ZM10.7509 5.04936C10.7216 5.2987 10.5016 5.48936 10.2522 5.48936C10.2229 5.48936 10.2082 5.48936 10.1789 5.48936C9.90024 5.44536 9.70957 5.19602 9.7389 4.91736C9.84157 4.15469 8.9909 3.75869 8.9469 3.74402C8.69757 3.62669 8.58023 3.31869 8.69757 3.06936C8.8149 2.82003 9.10823 2.7027 9.37223 2.80536C9.4309 2.82003 10.9562 3.52403 10.7509 5.04936ZM9.68023 6.16403C9.7829 6.26669 9.85624 6.42803 9.85624 6.5747C9.85624 6.73603 9.79757 6.8827 9.68023 6.98536C9.57757 7.08803 9.41624 7.16137 9.26957 7.16137C9.1229 7.16137 8.96157 7.1027 8.8589 6.98536C8.75623 6.8827 8.6829 6.72137 8.6829 6.5747C8.6829 6.42803 8.74157 6.26669 8.8589 6.16403C8.96157 6.06136 9.1229 5.98803 9.26957 5.98803C9.41624 5.98803 9.5629 6.04669 9.68023 6.16403Z" fill="#1E0606"/>
</svg>
